<svg width="78" height="52" viewBox="0 0 78 52" fill="none" xmlns="http://www.w3.org/2000/svg">
<path fill-rule="evenodd" clip-rule="evenodd" d="M12.5047 6.3191e-06H4.56543L1.69409 26.8313H1.1629V26.9603L0 32.3209H1.1629L0.588623 37.8104H5.74268L6.23083 32.3209H10.8537L11.3418 37.8104H16.4815L12.5047 6.3191e-06ZM6.69025 26.8313L8.52789 5.48954L10.3799 26.8313H6.69025Z" fill="#C0C0C7"/>
<path fill-rule="evenodd" clip-rule="evenodd" d="M31.5856 2.15779e-05H21.8374L20.6602 5.48955H21.8374V37.8104H27.5801V26.8313H31.5856C32.2071 26.8332 32.8229 26.7127 33.3976 26.4765C33.9723 26.2404 34.4947 25.8933 34.9348 25.4553C35.3749 25.0172 35.7241 24.4967 35.9624 23.9237C36.2007 23.3506 36.3233 22.7363 36.3233 22.1158V4.71557C36.3233 4.09511 36.2007 3.48075 35.9624 2.90769C35.7241 2.33465 35.3749 1.81417 34.9348 1.3761C34.4947 0.93804 33.9723 0.590994 33.3976 0.354849C32.8229 0.11872 32.2071 -0.00185525 31.5856 2.15779e-05ZM30.5519 21.3418H27.6806V5.48955H30.5519V21.3418Z" fill="#C0C0C7"/>
<path d="M41.3906 5.48954H42.5822V37.8247H55.6612V32.3209H48.3393V21.6571H53.4933V16.1676H48.3393V5.48954H55.6612V6.3191e-06H42.5822L41.3906 5.48954Z" fill="#C0C0C7"/>
<path d="M77.9995 6.3191e-06L73.7211 17.5866V20.2238L77.9995 37.8247H72.1419L69.2562 25.914L66.6002 37.8247H60.5273L64.8057 20.2238V17.5866L61.8625 5.48954H60.6709L61.8625 6.3191e-06H66.3705L69.2562 11.9107L71.9122 6.3191e-06H77.9995Z" fill="#C0C0C7"/>
<path d="M14.0277 47.9868V46.7685H0.589844L0.848267 47.9868H14.0277Z" fill="#C0C0C7"/>
<path d="M64.5625 46.7685V47.9868H77.7419L78.0004 46.7685H64.5625Z" fill="#C0C0C7"/>
<path d="M27.8238 52H24.6797V42.5402H27.8238V43.7585H25.9V46.7685H27.3357V47.9868H25.9V50.7817H27.8238V52Z" fill="#C0C0C7"/>
<path d="M20.2281 42.5402H19.0078V52H22.1519V50.7817H20.2281V42.5402Z" fill="#C0C0C7"/>
<path d="M31.4993 42.5402H33.3513C33.4639 42.5418 33.5749 42.5665 33.6775 42.6128C33.78 42.6591 33.8719 42.7261 33.9474 42.8095C34.0228 42.8929 34.0803 42.991 34.116 43.0976C34.1518 43.2041 34.1652 43.3169 34.1553 43.4289V44.7762L32.9349 45.0485V43.8302H31.9156V50.8534H32.9349V47.9868H32.3033L32.5617 46.7685H34.1553V51.1973C34.1516 51.4091 34.0657 51.6111 33.9157 51.7608C33.7657 51.9106 33.5634 51.9963 33.3513 52H31.4993C31.2872 51.9963 31.0848 51.9106 30.9349 51.7608C30.7849 51.6111 30.699 51.4091 30.6953 51.1973V43.3572C30.6989 43.1441 30.7843 42.9405 30.9339 42.7884C31.0835 42.6364 31.2859 42.5476 31.4993 42.5402Z" fill="#C0C0C7"/>
<path d="M37.0273 52H40.1714V50.7817H38.2477V47.9868H39.6689V46.7685H38.2477V43.7585H40.1714V42.5402H37.0273V52Z" fill="#C0C0C7"/>
<path d="M44.1341 42.5402L45.6846 47.9868V42.5402H46.9049V52H45.8712L44.249 46.7685V52H43.043V42.5402H44.1341Z" fill="#C0C0C7"/>
<path fill-rule="evenodd" clip-rule="evenodd" d="M52.4294 42.5402H49.7734V52H52.4294C52.6415 51.9963 52.8439 51.9106 52.9938 51.7608C53.1438 51.6111 53.2297 51.4091 53.2334 51.1973V43.3572C53.2335 43.143 53.1492 42.9373 52.9988 42.7845C52.8484 42.6317 52.644 42.544 52.4294 42.5402ZM52.0275 50.7817H50.9938V43.7585H52.0275V50.7817Z" fill="#C0C0C7"/>
<path d="M57.3264 46.7685H58.762C58.9779 46.7721 59.1839 46.8594 59.3365 47.0118C59.4893 47.1642 59.5767 47.3699 59.5803 47.5854V51.1973C59.5765 51.4115 59.4887 51.6157 59.3356 51.7658C59.1826 51.9159 58.9766 52 58.762 52H56.9243C56.7109 51.9964 56.507 51.9112 56.3546 51.7618C56.2023 51.6124 56.1133 51.4104 56.106 51.1973V49.764L57.3264 49.5061V50.7817H58.36V47.9151H56.9243C56.7098 47.9151 56.5038 47.831 56.3507 47.6809C56.1976 47.5308 56.1098 47.3266 56.106 47.1124V43.2855C56.102 43.1772 56.1204 43.0691 56.1601 42.9682C56.1998 42.8673 56.2599 42.7756 56.3367 42.6989C56.4136 42.6222 56.5054 42.5622 56.6065 42.5226C56.7076 42.4829 56.8158 42.4645 56.9243 42.4686H58.762C58.8688 42.4667 58.9749 42.486 59.0741 42.5255C59.1733 42.565 59.2636 42.6238 59.3398 42.6985C59.416 42.7732 59.4765 42.8624 59.5178 42.9607C59.5591 43.059 59.5803 43.1646 59.5803 43.2712V44.7045L58.36 44.9768V43.7585H57.3264V46.7685Z" fill="#C0C0C7"/>
</svg>
