<svg width="170" height="59" viewBox="0 0 170 59" fill="none" xmlns="http://www.w3.org/2000/svg">
<path d="M103.859 12.2872C102.478 8.0391 99.4581 4.48678 95.4424 2.38642L94.9385 2.1698C90.1848 0.126277 84.9361 -0.491602 79.8353 0.391842C75.4366 1.09475 71.1667 3.19146 68.3999 6.68798C65.13 10.8213 63.9398 16.2223 64.0625 21.3709C67.7005 21.425 71.3385 21.443 74.9765 21.3709C75.1053 18.5112 75.6329 15.5254 77.3813 13.1523C79.915 9.60773 85.4057 8.76064 89.0867 10.9715C91.786 12.6477 92.786 15.9519 92.6878 18.9558C92.6817 21.9597 90.9946 24.6632 88.9087 26.7659C85.8658 29.7998 82.1911 32.1068 78.7555 34.6781C74.9949 37.4777 71.3201 40.4876 68.4613 44.2064C65.226 48.2907 63.3825 53.2671 63.1914 58.4328L63.3632 58.613H105.319V49.1688C96.3503 49.1808 87.375 49.2529 78.4059 49.1328C78.9987 47.9515 79.8076 46.8866 80.7923 45.9907C84.1235 42.6083 88.283 40.1932 92.2277 37.5798C95.7184 35.2428 99.1601 32.6355 101.559 29.169C104.982 24.3027 105.7 17.8624 103.859 12.2872Z" fill="black" fill-opacity="0.1"/>
<path d="M153.356 24.7275H154.266C155.108 25.0675 155.906 25.5076 156.643 26.0383C156.692 27.6107 156.622 29.1878 156.671 30.7626C156.719 31.3194 156.95 31.8443 157.329 32.2541C157.708 32.6639 158.212 32.9351 158.762 33.0247C159.311 33.1143 159.875 33.0172 160.363 32.7488C160.852 32.4803 161.237 32.056 161.458 31.5429C161.742 30.9051 161.653 30.1878 161.665 29.5079C161.665 28.3397 161.649 27.1715 161.677 26.0032C162.457 25.5757 163.185 25.0476 164.026 24.7369H164.815C165.533 24.8543 166.176 25.2515 166.603 25.842C166.921 26.2811 167.092 26.8098 167.092 27.3525C167.092 27.8952 166.921 28.424 166.603 28.863C166.156 29.4588 165.458 29.7649 164.892 30.2228C163.549 31.2705 162.571 32.7182 162.098 34.3583C161.852 35.2659 161.703 36.1972 161.653 37.1363C161.627 37.5487 161.504 37.9491 161.296 38.3057C161.088 38.6622 160.8 38.9651 160.454 39.1901C160.058 39.4162 159.609 39.5341 159.153 39.5321C158.696 39.53 158.249 39.4081 157.854 39.1784C157.527 38.9672 157.252 38.6841 157.051 38.3505C156.849 38.017 156.726 37.6417 156.69 37.2532C156.63 36.4535 156.52 35.6583 156.362 34.8723C155.958 33.0436 154.938 31.4109 153.472 30.2509C152.867 29.7579 152.11 29.4308 151.656 28.7742C151.366 28.34 151.215 27.8274 151.223 27.3047C151.231 26.7821 151.398 26.2743 151.701 25.849C152.109 25.2962 152.694 24.9004 153.358 24.7275M106.05 25.5266C109.324 28.87 112.488 32.328 115.761 35.6737C115.791 32.4915 115.742 29.3093 115.787 26.1271C116.31 26.1271 116.837 26.1388 117.36 26.1271C117.444 26.7953 117.379 27.4705 117.4 28.1434C117.384 31.9565 117.43 35.7719 117.374 39.5919C117.008 39.2905 116.669 38.9583 116.359 38.599C113.758 35.8575 111.155 33.1192 108.551 30.3841C108.294 30.0892 108.013 29.8171 107.71 29.571C107.652 32.7625 107.71 35.9541 107.682 39.1504C107.14 39.1363 106.6 39.1387 106.053 39.1504C106.053 34.613 106.053 30.0756 106.053 25.5406M47.1014 27.057C48.4494 25.6551 50.866 25.4331 52.4049 26.6317C52.8331 26.9498 53.1717 27.3741 53.3874 27.863C52.9637 28.0967 52.5539 28.356 52.1372 28.5967C51.8345 28.2252 51.5481 27.807 51.0942 27.6084C50.1629 27.1808 48.9127 27.3911 48.2492 28.2112C48.0233 28.4808 47.8973 28.8205 47.8927 29.1727C47.888 29.5249 48.0049 29.8679 48.2235 30.1434C48.7753 30.8093 49.6437 31.0453 50.4143 31.3607C51.5342 31.7859 52.7029 32.3607 53.3408 33.4261C53.7723 34.2292 53.9231 35.1542 53.769 36.0534C53.615 36.9526 53.165 37.774 52.491 38.3863C51.9434 38.8493 51.2897 39.1686 50.5888 39.3154C49.8878 39.4622 49.1614 39.432 48.475 39.2275C47.7276 38.9813 47.0666 38.5242 46.5711 37.911C46.0757 37.2978 45.7667 36.5543 45.6812 35.7695C46.2237 35.6434 46.7661 35.5055 47.3109 35.4308C47.303 35.9985 47.4961 36.5507 47.8557 36.9892C48.2403 37.4393 48.7708 37.7388 49.3538 37.8349C49.9369 37.9311 50.535 37.8177 51.0429 37.5148C51.5111 37.2066 51.8647 36.7518 52.0487 36.2211C52.2327 35.6904 52.2368 35.1136 52.0603 34.5803C51.7856 33.842 51.0802 33.3887 50.3957 33.078C49.2316 32.5429 47.9372 32.1691 47.0292 31.2205C45.942 30.1037 46.0327 28.1457 47.099 27.0476M168.843 25.8233L169.404 25.8444C169.347 26.0829 169.323 26.3283 169.334 26.5733L169.001 26.2018C168.957 26.335 168.906 26.4682 168.852 26.5967C168.837 26.3391 168.837 26.0809 168.852 25.8233M169.01 25.9822C169.031 26.1388 169.111 26.1644 169.243 26.064C169.218 25.9074 169.138 25.8794 169.01 25.9822ZM0.0144863 26.1201C1.89331 26.1691 3.82567 25.9472 5.63697 26.5663C7.46457 27.1271 9.07333 28.5289 9.63208 30.3934C10.1606 32.2088 10.0605 34.2695 9.13153 35.9401C8.37488 37.3092 7.01291 38.2602 5.53686 38.7064C3.74884 39.2742 1.84907 39.0966 0.00517367 39.0896C0.00517367 34.7672 -0.00646709 30.4448 0.00517367 26.1201M1.63488 27.6387C1.6116 30.9612 1.6116 34.2843 1.63488 37.6083C3.03177 37.6597 4.49851 37.5382 5.78598 36.9261C6.71754 36.5064 7.46316 35.7582 7.88131 34.8233C8.28213 33.8202 8.40286 32.7265 8.23054 31.6597C8.15824 31.0662 7.96101 30.495 7.65194 29.9838C7.34288 29.4726 6.92903 29.0332 6.43786 28.6948C5.04097 27.7602 3.27856 27.5733 1.63255 27.6434M24.481 26.1224C26.7844 26.1364 29.0861 26.1364 31.3863 26.1224C31.4371 26.6153 31.4449 27.1117 31.4096 27.606C29.6379 27.6364 27.8662 27.62 26.0921 27.606C26.0921 28.8046 26.0921 30.0009 26.0921 31.1995C27.815 31.2766 29.5401 31.2182 31.2629 31.2298C31.2839 31.7228 31.2792 32.2182 31.2629 32.7135C29.5401 32.7415 27.815 32.7135 26.0898 32.7135C26.0898 34.3326 26.0898 35.9518 26.0898 37.5709C26.3043 37.6 26.5206 37.6141 26.737 37.613C28.2876 37.599 29.8381 37.613 31.3933 37.6013C31.4609 38.1045 31.4609 38.6145 31.3933 39.1176C29.0962 39.1036 26.7976 39.1036 24.4973 39.1176C24.4531 35.7952 24.4973 32.4682 24.4787 29.1434C24.4787 28.1294 24.4578 27.1154 24.495 26.106M67.3493 26.106C69.9165 26.1201 72.4837 26.1201 75.0508 26.106C75.1125 26.6104 75.1125 27.1204 75.0508 27.6247C74.0427 27.6247 73.03 27.5757 72.0242 27.6434C72.0242 31.4565 72.0429 35.2695 72.0242 39.0919C71.4891 39.12 70.9529 39.12 70.4178 39.0919C70.4015 35.2765 70.4178 31.4588 70.4178 27.6434C69.4051 27.6014 68.39 27.6247 67.3749 27.6434C67.3121 27.1392 67.3121 26.629 67.3749 26.1247M89.2735 26.1247C89.7973 26.1247 90.3235 26.1364 90.8497 26.1247C90.8765 26.3402 90.8905 26.5571 90.8916 26.7743C90.8706 30.8817 90.9056 34.9938 90.873 39.1013C90.3344 39.1293 89.7966 39.1293 89.2596 39.1013C89.2596 34.7742 89.2363 30.4565 89.2735 26.1224M131.329 26.1224C131.949 26.1224 132.568 26.106 133.192 26.1387C134.242 27.9612 135.255 29.8046 136.339 31.6037C137.462 29.8116 138.435 27.9285 139.529 26.1224C140.127 26.1224 140.726 26.1224 141.324 26.1224C141.17 26.5897 140.858 27.0056 140.626 27.4425C139.489 29.4401 138.321 31.4144 137.196 33.4237C137.098 35.3069 137.196 37.2064 137.145 39.0919C136.607 39.12 136.067 39.12 135.532 39.0919C135.532 37.3318 135.532 35.5725 135.532 33.8139C135.574 33.3467 135.231 32.9915 135.036 32.606C133.809 30.4401 132.519 28.3093 131.334 26.1201M158.59 26.1201C159.542 25.7275 160.738 26.4098 160.846 27.4448C160.904 28.4308 160.846 29.4168 160.871 30.4027C160.889 30.7263 160.817 31.0484 160.662 31.3326C160.507 31.6168 160.275 31.8516 159.993 32.0102C159.627 32.219 159.195 32.2826 158.784 32.1883C158.373 32.0941 158.012 31.8488 157.772 31.5009C157.421 31.0336 157.47 30.4051 157.465 29.8443C157.481 29.085 157.442 28.3233 157.486 27.5663C157.51 27.2491 157.624 26.9454 157.814 26.6908C158.004 26.4363 158.263 26.2415 158.559 26.1294" fill="#AFAFB7"/>
</svg>
