<svg width="20" height="16" viewBox="0 0 20 16" fill="none" xmlns="http://www.w3.org/2000/svg">
<path d="M16.9308 1.64151C15.6342 1.04631 14.2658 0.621879 12.8599 0.378842C12.8471 0.376459 12.834 0.378165 12.8222 0.383715C12.8105 0.389266 12.8008 0.398379 12.7945 0.409758C12.6187 0.722508 12.4239 1.13043 12.2876 1.45101C10.7503 1.22084 9.22092 1.22084 7.71525 1.45101C7.57892 1.12326 7.37709 0.722508 7.2005 0.409758C7.19396 0.398639 7.18422 0.389748 7.17255 0.384248C7.16088 0.378748 7.14783 0.376893 7.13509 0.378925C5.72907 0.621397 4.36058 1.04579 3.06409 1.64143C3.05299 1.64616 3.04365 1.65423 3.03734 1.66451C0.444503 5.53817 -0.26583 9.31659 0.08267 13.0482C0.0836554 13.0573 0.0864643 13.0662 0.0909303 13.0742C0.0953964 13.0822 0.101429 13.0893 0.10867 13.0949C1.81934 14.3513 3.47642 15.1139 5.10275 15.6194C5.1154 15.6232 5.1289 15.623 5.14144 15.6189C5.15398 15.6148 5.16496 15.607 5.17292 15.5964C5.55759 15.0711 5.9005 14.5171 6.19459 13.9346C6.19863 13.9266 6.20094 13.9179 6.20136 13.9089C6.20178 13.9 6.2003 13.8911 6.19703 13.8828C6.19375 13.8744 6.18875 13.8669 6.18236 13.8607C6.17596 13.8544 6.16831 13.8496 6.15992 13.8465C5.61592 13.6402 5.098 13.3886 4.59975 13.1029C4.59067 13.0976 4.58303 13.0901 4.57753 13.0811C4.57203 13.0721 4.56882 13.0619 4.56819 13.0514C4.56757 13.0409 4.56954 13.0304 4.57394 13.0208C4.57834 13.0112 4.58503 13.0029 4.59342 12.9965C4.69825 12.9179 4.80317 12.8363 4.90325 12.7537C4.91215 12.7463 4.92291 12.7416 4.93434 12.7401C4.94577 12.7385 4.9574 12.7402 4.96792 12.7449C8.24109 14.2393 11.7846 14.2393 15.0191 12.7449C15.0296 12.7399 15.0414 12.738 15.0529 12.7394C15.0645 12.7408 15.0755 12.7455 15.0845 12.7528C15.1847 12.8353 15.2895 12.9179 15.3952 12.9965C15.4036 13.0028 15.4103 13.0111 15.4148 13.0206C15.4192 13.0302 15.4213 13.0406 15.4207 13.0511C15.4202 13.0616 15.4171 13.0719 15.4117 13.0809C15.4062 13.0899 15.3987 13.0974 15.3897 13.1028C14.8912 13.394 14.3691 13.6425 13.8288 13.8457C13.8204 13.8489 13.8128 13.8538 13.8065 13.8602C13.8001 13.8665 13.7952 13.8742 13.792 13.8825C13.7888 13.8909 13.7874 13.8999 13.7879 13.9089C13.7884 13.9179 13.7908 13.9266 13.7949 13.9346C14.0953 14.5163 14.4382 15.0703 14.8158 15.5956C14.8235 15.6064 14.8344 15.6146 14.847 15.6188C14.8596 15.6231 14.8732 15.6233 14.8859 15.6194C16.5201 15.1138 18.1772 14.3512 19.8878 13.0949C19.8952 13.0896 19.9013 13.0827 19.9058 13.0747C19.9103 13.0668 19.9131 13.058 19.9139 13.0489C20.3309 8.73476 19.2154 4.98734 16.9568 1.66526C16.9513 1.65447 16.9421 1.64601 16.9308 1.64143V1.64151ZM6.68334 10.776C5.69792 10.776 4.88592 9.87126 4.88592 8.76017C4.88592 7.64917 5.68217 6.74443 6.68342 6.74443C7.69242 6.74443 8.4965 7.65709 8.48075 8.76026C8.48075 9.87126 7.6845 10.776 6.68334 10.776ZM13.329 10.776C12.3436 10.776 11.5316 9.87126 11.5316 8.76017C11.5316 7.64917 12.3278 6.74443 13.329 6.74443C14.338 6.74443 15.1421 7.65709 15.1263 8.76026C15.1263 9.87126 14.338 10.776 13.329 10.776Z" fill="#F7F7F7"/>
</svg>
