<svg width="18" height="18" viewBox="0 0 18 18" fill="none" xmlns="http://www.w3.org/2000/svg">
<path d="M18 1.22656C18 0.71875 17.5312 0.25 17.0234 0.25H1.4375C0.929688 0.25 0.5 0.71875 0.5 1.22656V16.8125C0.5 17.3203 0.929688 17.75 1.4375 17.75H9.83594V10.9922H7.53125V8.33594H9.83594V6.38281C9.83594 4.15625 11.2031 2.90625 13.2344 2.90625C14.1719 2.90625 15.0312 2.98438 15.2656 3.02344V5.36719H13.8594C12.7656 5.36719 12.5703 5.91406 12.5703 6.65625V8.33594H15.1875L14.8359 10.9922H12.5703V17.75H17.0234C17.5312 17.75 18 17.3203 18 16.8125V1.22656Z" fill="white"/>
</svg>
