<svg width="13" height="19" viewBox="0 0 13 19" fill="none" xmlns="http://www.w3.org/2000/svg">
<path d="M0.108398 10.2935C0.108398 10.465 0.169271 10.6089 0.291016 10.7251C0.41276 10.8413 0.567708 10.8994 0.755859 10.8994H5.4624L3.00537 17.4404C2.88916 17.7448 2.89469 17.991 3.02197 18.1792C3.14925 18.3674 3.3291 18.4642 3.56152 18.4697C3.79395 18.4753 4.01253 18.3535 4.21729 18.1045L11.8208 8.81592C11.9702 8.62777 12.0449 8.43685 12.0449 8.24316C12.0449 8.07161 11.984 7.92773 11.8623 7.81152C11.7406 7.69531 11.5856 7.63721 11.3975 7.63721H6.69092L9.15625 1.09619C9.27246 0.791829 9.26693 0.545573 9.13965 0.357422C9.01237 0.169271 8.82975 0.0751953 8.5918 0.0751953C8.35938 0.0696615 8.14079 0.188639 7.93604 0.432129L0.33252 9.729C0.183105 9.91162 0.108398 10.0998 0.108398 10.2935Z" fill="white"/>
</svg>
