<svg width="107" height="20" viewBox="0 0 107 20" fill="none" xmlns="http://www.w3.org/2000/svg">
<path d="M20 0H0V20H20V0Z" fill="#51B380"/>
<path d="M41.6641 0H21.6641V20H41.6641V0Z" fill="#51B380"/>
<path d="M63.3359 0H43.3359V20H63.3359V0Z" fill="#51B380"/>
<path d="M85 0H65V20H85V0Z" fill="#51B380"/>
<path d="M106.664 0H86.6641V20H106.664V0Z" fill="#51B380"/>
<path d="M10 13.4792L13.0417 12.7083L14.3125 16.625L10 13.4792ZM17 8.41667H11.6458L10 3.375L8.35417 8.41667H3L7.33333 11.5417L5.6875 16.5833L10.0208 13.4583L12.6875 11.5417L17 8.41667Z" fill="white"/>
<path d="M31.6641 13.4792L34.7057 12.7083L35.9766 16.625L31.6641 13.4792ZM38.6641 8.41667H33.3099L31.6641 3.375L30.0182 8.41667H24.6641L28.9974 11.5417L27.3516 16.5833L31.6849 13.4583L34.3516 11.5417L38.6641 8.41667Z" fill="white"/>
<path d="M53.3359 13.4792L56.3776 12.7083L57.6484 16.625L53.3359 13.4792ZM60.3359 8.41667H54.9818L53.3359 3.375L51.6901 8.41667H46.3359L50.6693 11.5417L49.0234 16.5833L53.3568 13.4583L56.0234 11.5417L60.3359 8.41667Z" fill="white"/>
<path d="M75 13.4792L78.0417 12.7083L79.3125 16.625L75 13.4792ZM82 8.41667H76.6458L75 3.375L73.3542 8.41667H68L72.3333 11.5417L70.6875 16.5833L75.0208 13.4583L77.6875 11.5417L82 8.41667Z" fill="white"/>
<path d="M96.6641 13.4792L99.7057 12.7083L100.977 16.625L96.6641 13.4792ZM103.664 8.41667H98.3099L96.6641 3.375L95.0182 8.41667H89.6641L93.9974 11.5417L92.3516 16.5833L96.6849 13.4583L99.3516 11.5417L103.664 8.41667Z" fill="white"/>
</svg>
