<svg width="22" height="23" viewBox="0 0 22 23" fill="none" xmlns="http://www.w3.org/2000/svg">
<circle cx="11" cy="11.5" r="10.5" stroke="black"/>
<path d="M9.96591 17.5V8.77273H12.3864V17.5H9.96591ZM11.1818 7.64773C10.822 7.64773 10.5133 7.52841 10.2557 7.28977C10.0019 7.04735 9.875 6.75758 9.875 6.42045C9.875 6.08712 10.0019 5.80114 10.2557 5.5625C10.5133 5.32008 10.822 5.19886 11.1818 5.19886C11.5417 5.19886 11.8485 5.32008 12.1023 5.5625C12.3598 5.80114 12.4886 6.08712 12.4886 6.42045C12.4886 6.75758 12.3598 7.04735 12.1023 7.28977C11.8485 7.52841 11.5417 7.64773 11.1818 7.64773Z" fill="black"/>
</svg>
