<svg width="18" height="18" viewBox="0 0 18 18" fill="none" xmlns="http://www.w3.org/2000/svg">
<path d="M8.76953 4.48828C6.26953 4.48828 4.27734 6.51953 4.27734 8.98047C4.27734 11.4805 6.26953 13.4727 8.76953 13.4727C11.2305 13.4727 13.2617 11.4805 13.2617 8.98047C13.2617 6.51953 11.2305 4.48828 8.76953 4.48828ZM8.76953 11.9102C7.16797 11.9102 5.83984 10.6211 5.83984 8.98047C5.83984 7.37891 7.12891 6.08984 8.76953 6.08984C10.3711 6.08984 11.6602 7.37891 11.6602 8.98047C11.6602 10.6211 10.3711 11.9102 8.76953 11.9102ZM14.4727 4.33203C14.4727 3.74609 14.0039 3.27734 13.418 3.27734C12.832 3.27734 12.3633 3.74609 12.3633 4.33203C12.3633 4.91797 12.832 5.38672 13.418 5.38672C14.0039 5.38672 14.4727 4.91797 14.4727 4.33203ZM17.4414 5.38672C17.3633 3.98047 17.0508 2.73047 16.0352 1.71484C15.0195 0.699219 13.7695 0.386719 12.3633 0.308594C10.918 0.230469 6.58203 0.230469 5.13672 0.308594C3.73047 0.386719 2.51953 0.699219 1.46484 1.71484C0.449219 2.73047 0.136719 3.98047 0.0585938 5.38672C-0.0195312 6.83203 -0.0195312 11.168 0.0585938 12.6133C0.136719 14.0195 0.449219 15.2305 1.46484 16.2852C2.51953 17.3008 3.73047 17.6133 5.13672 17.6914C6.58203 17.7695 10.918 17.7695 12.3633 17.6914C13.7695 17.6133 15.0195 17.3008 16.0352 16.2852C17.0508 15.2305 17.3633 14.0195 17.4414 12.6133C17.5195 11.168 17.5195 6.83203 17.4414 5.38672ZM15.5664 14.1367C15.293 14.918 14.668 15.5039 13.9258 15.8164C12.7539 16.2852 10.0195 16.168 8.76953 16.168C7.48047 16.168 4.74609 16.2852 3.61328 15.8164C2.83203 15.5039 2.24609 14.918 1.93359 14.1367C1.46484 13.0039 1.58203 10.2695 1.58203 8.98047C1.58203 7.73047 1.46484 4.99609 1.93359 3.82422C2.24609 3.08203 2.83203 2.49609 3.61328 2.18359C4.74609 1.71484 7.48047 1.83203 8.76953 1.83203C10.0195 1.83203 12.7539 1.71484 13.9258 2.18359C14.668 2.45703 15.2539 3.08203 15.5664 3.82422C16.0352 4.99609 15.918 7.73047 15.918 8.98047C15.918 10.2695 16.0352 13.0039 15.5664 14.1367Z" fill="white"/>
</svg>
