<svg width="125" height="32" viewBox="0 0 125 32" fill="none" xmlns="http://www.w3.org/2000/svg">
<path fill-rule="evenodd" clip-rule="evenodd" d="M112.018 0.582031H56.0783V3.19695H3.7002V7.09711H0V31.9971H92.9V29.097H125V3.19695H112.018V0.582031Z" fill="#6800ED"/>
<path d="M17.5862 24.197V21.491H12.3502V9.03901H9.49023V24.197H17.5862Z" fill="#F7F7F7"/>
<path d="M27.3376 24.197V21.623H21.3096V17.773H25.9736V15.265H21.3096V11.613H27.0076V9.03901H18.4716V24.197H27.3376Z" fill="#F7F7F7"/>
<path d="M32.6268 24.549C34.5408 24.549 35.7068 23.427 36.1908 21.667V24.197H38.3248V16.431H32.8468V18.653H35.5968V18.829C35.5968 20.677 34.9588 22.129 33.3528 22.129C31.3948 22.129 30.5588 20.281 30.5588 16.717C30.5588 13.373 31.5048 11.217 33.4628 11.217C34.8268 11.217 35.7288 12.295 35.7288 14.429L38.3468 13.901C38.2588 10.755 36.5428 8.68701 33.5728 8.68701C29.7448 8.68701 27.6108 11.723 27.6108 16.827C27.6108 21.975 29.5468 24.549 32.6268 24.549Z" fill="#F7F7F7"/>
<path d="M42.8606 24.197V9.03901H40.0006V24.197H42.8606Z" fill="#F7F7F7"/>
<path d="M49.831 24.549C53.043 24.549 55.529 21.887 55.529 16.629C55.529 11.349 53.087 8.68701 49.853 8.68701C46.641 8.68701 44.177 11.349 44.177 16.629C44.177 21.887 46.597 24.549 49.831 24.549ZM49.831 21.953C48.247 21.953 47.169 20.303 47.169 16.629C47.169 12.933 48.291 11.283 49.853 11.283C51.437 11.283 52.559 12.933 52.559 16.629C52.559 20.303 51.393 21.953 49.831 21.953Z" fill="#F7F7F7"/>
<path d="M59.4861 24.197V12.405L63.3801 24.197H67.1641V9.03901H64.5241V20.523L60.8061 9.03901H56.8461V24.197H59.4861Z" fill="#F7F7F7"/>
<path d="M71.9101 24.197V18.279H76.3321V15.705H71.9101V11.701H77.2561V9.03901H69.0501V24.197H71.9101Z" fill="#F7F7F7"/>
<path d="M79.0819 24.197L79.9179 20.875H84.2519L85.1099 24.197H88.1679L83.9659 9.03901H80.4239L76.1559 24.197H79.0819ZM82.0739 12.031L83.7679 18.455H80.4239L82.0739 12.031Z" fill="#F7F7F7"/>
<path d="M91.7188 24.197V18.345H93.7429C95.3488 18.345 96.0309 19.203 96.1849 20.743L96.5368 24.197H99.3968L98.9569 21.227C98.6269 18.873 98.1208 17.135 95.7888 16.959C97.7468 16.717 99.4189 15.463 99.4189 13.065C99.4189 10.645 97.7468 9.03901 94.7989 9.03901H88.9249V24.197H91.7188ZM91.7188 11.305H94.3809C95.8328 11.305 96.6469 12.163 96.6469 13.483C96.6469 14.957 95.7009 15.837 93.9849 15.837H91.7188V11.305Z" fill="#F7F7F7"/>
<path d="M108.245 19.951L105.605 9.03901H100.721V24.197H103.427V11.547L106.749 24.197H109.499L112.821 11.701V24.197H115.615V9.03901H110.907L108.245 19.951Z" fill="#F7F7F7"/>
</svg>
