<svg width="128" height="48" viewBox="0 0 128 48" fill="none" xmlns="http://www.w3.org/2000/svg">
<path d="M120.917 34.4842C118.741 33.9402 116.864 33.4799 116.864 31.7224C116.864 30.3415 117.931 29.4628 119.637 29.4628C121.216 29.3791 122.667 30.4252 122.965 31.9735L127.232 29.9649C126.08 27.2032 123.307 25.5294 119.765 25.5294C115.157 25.5294 111.957 28.2912 111.957 32.2246C111.957 37.0367 115.499 37.9573 118.656 38.7523C120.875 39.2963 122.752 39.7984 122.752 41.5978C122.752 43.1042 121.515 44.0666 119.637 44.0666C117.76 44.0666 116.181 43.0623 115.755 41.5559L111.488 43.5645C112.683 46.3262 115.712 48 119.467 48C124.459 48 127.659 45.2801 127.659 41.0119C127.659 36.158 123.904 35.2374 120.917 34.4842Z" fill="#C0C0C7"/>
<path d="M128 6.07141V8.28918H124.373V10.3814H127.531L126.933 12.5155H124.373V15.8212H121.899V6.07141H128Z" fill="#C0C0C7"/>
<path d="M115.669 8.33103C117.205 8.33103 118.443 9.54452 118.443 11.0509C118.443 12.5573 117.205 13.7708 115.669 13.7708C114.133 13.7708 112.896 12.5573 112.896 11.0509C112.896 9.54452 114.133 8.33103 115.669 8.33103ZM115.669 16.1141C118.528 16.1141 120.832 13.8127 120.832 11.0091C120.832 8.20549 118.485 5.94588 115.627 5.94588C112.768 5.94588 110.464 8.24734 110.464 11.0091C110.464 13.8545 112.811 16.156 115.669 16.1141Z" fill="#C0C0C7"/>
<path d="M70.1867 47.3723H74.7947V33.1033L85.248 47.3723H90.0693V25.6549H85.4187V40.1332L75.0933 25.6549H69.12L70.1867 27.789V47.3723Z" fill="#C0C0C7"/>
<path d="M105.685 39.0871C105.045 40.6353 103.765 41.8488 102.229 42.5183C101.419 42.8531 100.565 43.0205 99.6693 43.0205H97.024V30.0486H99.6693C100.565 30.0486 101.419 30.216 102.229 30.5508C103.808 31.1784 105.045 32.4338 105.685 33.982C106.368 35.6558 106.368 37.4551 105.685 39.0871ZM104.149 26.5337C102.741 25.9897 101.248 25.6968 99.7547 25.6131H92.2027V47.3305H99.7547C102.741 47.3305 105.6 46.2425 107.776 44.234C108.8 43.2715 109.653 42.0999 110.208 40.8027C112.043 36.7019 111.061 31.9316 107.776 28.8351C106.709 27.8727 105.515 27.0777 104.149 26.5337Z" fill="#C0C0C7"/>
<path d="M29.5253 47.3723H16.3413V25.6549H29.5253V29.8813H21.1627V34.2749H28.8L27.648 38.3757H21.1627V43.146L29.5253 43.1879V47.3723Z" fill="#C0C0C7"/>
<path d="M59.648 29.8813H68.0107V25.6549H54.8693V47.3723H68.0107V43.1879L59.648 43.146V38.3757H66.1333L67.2853 34.2749H59.648V29.8813Z" fill="#C0C0C7"/>
<path d="M76.3733 17.1603C75.9467 15.9468 75.7333 14.6914 75.776 13.4361L75.8613 0.0457779H80.64L80.5974 13.2269C80.5974 14.6914 80.9387 15.8631 81.6214 16.7C83.2427 18.3738 85.9734 18.4156 87.6374 16.7837L87.7227 16.7C88.448 15.8631 88.7894 14.6914 88.7894 13.2269L88.832 0.00393322H93.6961L93.6107 13.5198C93.6107 14.7751 93.44 16.0304 93.0134 17.2439C92.6294 18.2901 91.9894 19.2525 91.2214 20.0894C90.4107 20.8844 89.472 21.5121 88.4054 21.8887C85.9734 22.7256 83.328 22.7256 80.896 21.8468C79.8294 21.4284 78.8907 20.8426 78.1227 20.0057C77.3547 19.2106 76.7573 18.2482 76.3733 17.1603Z" fill="#C0C0C7"/>
<path d="M52.3947 15.4865C51.7973 14.1056 51.4987 12.5992 51.4987 11.1346C51.4987 9.62821 51.84 8.16365 52.4373 6.78277C53.0347 5.44374 53.888 4.23025 54.9547 3.22597C56.0213 2.17986 57.3013 1.38481 58.6667 0.840827C60.0747 0.255001 61.6107 -0.0379115 63.1893 0.00393322C65.28 -0.0379345 67.3707 0.506069 69.2053 1.51034C70.912 2.47277 72.32 3.89549 73.216 5.65297L68.864 7.66151C68.352 6.65724 67.5413 5.82034 66.56 5.23452C65.536 4.64869 64.3413 4.39763 63.1467 4.39763C62.2507 4.39763 61.312 4.56501 60.5013 4.89976C59.6907 5.23452 58.9653 5.73666 58.368 6.36433C57.728 6.992 57.2587 7.7452 56.9173 8.54025C56.192 10.2559 56.192 12.1389 56.8747 13.8545C57.5147 15.4865 58.8373 16.8255 60.4587 17.5369C61.312 17.9135 62.208 18.1227 63.1467 18.0808C64.512 18.1227 65.8773 17.7042 66.9867 16.951C68.0107 16.2397 68.736 15.1517 69.0347 13.9382H61.1413L63.104 10.0048H74.112C74.1547 10.8417 74.112 12.641 74.0693 13.0176C73.9413 14.0219 73.6853 15.0262 73.3013 15.9886C72.2346 18.583 70.144 20.5915 67.4986 21.6376C63.1466 23.3533 58.1973 22.349 54.8693 19.0851C53.8026 18.039 52.992 16.8255 52.3947 15.4865Z" fill="#C0C0C7"/>
<path d="M1.10933 19.5872V2.30539L0 0.0457779H5.888V17.5787H14.72L13.4827 21.8469H0L1.10933 19.5872Z" fill="#C0C0C7"/>
<path d="M1.10933 45.1127V27.8309L0 25.5712H5.888V43.1042H14.72L13.4827 47.3723H0L1.10933 45.1127Z" fill="#C0C0C7"/>
<path d="M29.5253 21.8471H16.3413V0.129677H29.5253V4.35599H21.1627V8.74968H28.8L27.648 12.8505H21.1627V17.5789L29.5253 17.6208V21.8471Z" fill="#C0C0C7"/>
<path d="M95.8293 21.8471V0.129677H109.013V4.35599H100.651V8.74968H108.288L107.136 12.8505H100.651V17.5789L109.013 17.6208V21.8471L95.8293 21.8471Z" fill="#C0C0C7"/>
<path d="M42.1547 6.1551L44.928 13.4779H39.2533L42.1547 6.1551ZM35.968 21.8469L37.632 17.6205H46.5067L48.2133 21.8469H53.2053L44.288 0.0457779H37.4613L38.912 2.89122L31.0613 21.8469H35.968Z" fill="#C0C0C7"/>
<path d="M39.5093 47.7071C40.32 47.8745 41.1307 47.9582 41.984 47.9582C43.4773 48 44.9707 47.7071 46.3787 47.1631C49.024 46.117 51.1147 44.1084 52.1813 41.5141C52.5653 40.5516 52.8213 39.5474 52.9493 38.5431C53.0347 37.5388 53.0347 36.5346 52.992 35.4884H41.984V35.5303L40.0213 39.4637H47.872C47.5733 40.6772 46.848 41.7651 45.824 42.4765C44.7147 43.2715 43.392 43.6482 42.0267 43.6063C41.6 43.6063 41.216 43.5645 40.7893 43.4808L39.808 43.2297C39.6373 43.1879 39.5093 43.1042 39.3387 43.0623C37.7173 42.351 36.3947 41.0538 35.7547 39.38C35.072 37.6644 35.072 35.7395 35.7973 34.0239C36.1387 33.2288 36.6507 32.4756 37.248 31.8479C37.8453 31.2203 38.6133 30.76 39.424 30.4252C40.2773 30.0905 41.1733 29.9231 42.0693 29.9231C43.264 29.8813 44.4587 30.1742 45.4827 30.76C46.464 31.3458 47.2747 32.1827 47.7867 33.187L52.1387 31.1784C51.2427 29.421 49.8773 27.9982 48.128 27.0358C46.2933 26.0315 44.2453 25.5294 42.112 25.5294C39.04 25.4876 36.096 26.6592 33.8773 28.7933C32.8107 29.7976 31.9573 31.0111 31.36 32.3501C30.1227 35.1118 30.1227 38.292 31.3173 41.0538C31.9147 42.3928 32.7253 43.6063 33.7493 44.6524C34.688 45.573 35.7973 46.3262 36.992 46.912C37.8311 47.2827 38.6702 47.5835 39.5093 47.7071Z" fill="#C0C0C7"/>
</svg>
