<svg width="94" height="26" viewBox="0 0 94 26" fill="none" xmlns="http://www.w3.org/2000/svg">
<g clip-path="url(#clip0_3540_68568)">
<path d="M26.6905 8.03418H35.6078V9.64008H32.0967V18.6928H30.1722V9.64008H26.6758L26.6905 8.03418ZM35.2259 10.976H36.8712V12.4682H36.9006C36.9594 12.255 37.0622 12.056 37.2091 11.8571C37.356 11.6581 37.5323 11.4734 37.7527 11.317C37.9584 11.1465 38.1934 11.0186 38.4578 10.9191C38.7076 10.8196 38.972 10.7628 39.2365 10.7628C39.4421 10.7628 39.589 10.777 39.6625 10.777C39.736 10.7912 39.8241 10.8054 39.8976 10.8054V12.4397C39.78 12.4113 39.6478 12.3971 39.5156 12.3829C39.3834 12.3687 39.2658 12.3545 39.1336 12.3545C38.8398 12.3545 38.5607 12.4113 38.2963 12.525C38.0318 12.6387 37.8115 12.8092 37.6058 13.0224C37.4148 13.2498 37.2532 13.5198 37.1357 13.8467C37.0181 14.1735 36.9594 14.5573 36.9594 14.9836V18.6502H35.1965L35.2259 10.976ZM47.9775 18.6928H46.244V17.6127H46.2146C45.9943 18.0106 45.6711 18.3091 45.245 18.5507C44.819 18.7923 44.3783 18.906 43.9375 18.906C42.8945 18.906 42.1306 18.6644 41.6605 18.1528C41.1903 17.6554 40.9553 16.8879 40.9553 15.8789V10.976H42.7182V15.7084C42.7182 16.3905 42.8504 16.8737 43.1295 17.1437C43.394 17.428 43.7759 17.5701 44.2607 17.5701C44.628 17.5701 44.9365 17.5132 45.1863 17.3996C45.436 17.2859 45.6417 17.1437 45.7886 16.959C45.9502 16.7742 46.053 16.5469 46.1265 16.2911C46.1999 16.0352 46.2293 15.751 46.2293 15.4526V10.976H47.9922V18.6928H47.9775ZM50.9745 16.22C51.0332 16.7174 51.2242 17.0585 51.5621 17.2717C51.9 17.4706 52.3113 17.5701 52.7814 17.5701C52.943 17.5701 53.134 17.5559 53.3397 17.5275C53.5454 17.499 53.751 17.4564 53.9273 17.3853C54.1183 17.3143 54.2652 17.2148 54.3827 17.0727C54.5003 16.9306 54.559 16.76 54.5443 16.5469C54.5296 16.3337 54.4562 16.1489 54.2946 16.0068C54.133 15.8647 53.942 15.7652 53.707 15.6657C53.4719 15.5805 53.1928 15.5094 52.8843 15.4526C52.5758 15.3957 52.2673 15.3247 51.9441 15.2536C51.6209 15.1826 51.2977 15.0973 50.9892 14.9978C50.6806 14.8983 50.4162 14.7704 50.1665 14.5857C49.9314 14.4151 49.7257 14.202 49.5935 13.9319C49.4466 13.6619 49.3732 13.3493 49.3732 12.9514C49.3732 12.525 49.476 12.1839 49.6964 11.8997C49.902 11.6155 50.1812 11.3881 50.5044 11.2176C50.8275 11.047 51.1948 10.9191 51.5915 10.8481C51.9881 10.777 52.3701 10.7486 52.7227 10.7486C53.134 10.7486 53.5307 10.7912 53.8979 10.8765C54.2652 10.9617 54.6178 11.0897 54.9116 11.2886C55.2201 11.4734 55.4699 11.7292 55.6608 12.0276C55.8665 12.326 55.984 12.6955 56.0428 13.1219H54.2064C54.1183 12.7098 53.9273 12.4397 53.6335 12.2976C53.325 12.1555 52.9871 12.0845 52.5905 12.0845C52.4729 12.0845 52.3113 12.0987 52.1497 12.1129C51.9734 12.1413 51.8265 12.1697 51.6649 12.2266C51.518 12.2834 51.3858 12.3687 51.283 12.4682C51.1801 12.5676 51.1214 12.7098 51.1214 12.8803C51.1214 13.0935 51.1948 13.2498 51.3417 13.3777C51.4886 13.5056 51.6796 13.6051 51.9294 13.7046C52.1644 13.7898 52.4435 13.8609 52.7521 13.9177C53.0606 13.9746 53.3838 14.0456 53.707 14.1167C54.0302 14.1878 54.3387 14.273 54.6472 14.3725C54.9557 14.472 55.2348 14.5999 55.4699 14.7846C55.7049 14.9552 55.9106 15.1683 56.0575 15.4242C56.2044 15.68 56.2779 16.0068 56.2779 16.3763C56.2779 16.8311 56.175 17.2148 55.9547 17.5417C55.7343 17.8543 55.4552 18.1243 55.1173 18.3233C54.7794 18.5223 54.3827 18.6644 53.9714 18.7639C53.5454 18.8491 53.134 18.906 52.7227 18.906C52.2232 18.906 51.7531 18.8491 51.327 18.7354C50.901 18.6217 50.519 18.4512 50.2105 18.238C49.902 18.0106 49.6523 17.7406 49.476 17.3996C49.2997 17.0727 49.1969 16.6748 49.1822 16.2058H50.9598V16.22H50.9745ZM56.7774 10.976H58.1142V8.64527H59.8771V10.9617H61.4637V12.2266H59.8771V16.3479C59.8771 16.5327 59.8918 16.6748 59.9065 16.8169C59.9212 16.9448 59.9653 17.0585 60.0093 17.1437C60.0681 17.229 60.1562 17.3001 60.2591 17.3427C60.3766 17.3853 60.5235 17.4138 60.7292 17.4138C60.8467 17.4138 60.9789 17.4138 61.0965 17.3996C61.214 17.3853 61.3462 17.3711 61.4637 17.3427V18.6644C61.2728 18.6928 61.0818 18.707 60.8908 18.7212C60.6998 18.7496 60.5235 18.7496 60.3178 18.7496C59.8477 18.7496 59.4805 18.707 59.2013 18.6217C58.9222 18.5365 58.7019 18.4086 58.5403 18.2522C58.3787 18.0817 58.2758 17.8827 58.2171 17.6411C58.1583 17.3996 58.1289 17.1011 58.1142 16.7885V12.2408H56.7774V10.9475V10.976ZM62.6978 10.976H64.3578V12.0276H64.3872C64.637 11.5728 64.9748 11.2602 65.4156 11.0612C65.8563 10.8623 66.3264 10.7628 66.8553 10.7628C67.487 10.7628 68.0305 10.8623 68.5007 11.0897C68.9708 11.3028 69.3527 11.5871 69.6612 11.9708C69.9697 12.3403 70.2048 12.7808 70.3517 13.2782C70.4986 13.7756 70.5868 14.3157 70.5868 14.8699C70.5868 15.3957 70.5133 15.8931 70.3811 16.3763C70.2342 16.8595 70.0285 17.3001 69.7494 17.6696C69.4702 18.0391 69.1177 18.3375 68.6769 18.5649C68.2362 18.7923 67.7367 18.906 67.1491 18.906C66.8994 18.906 66.6349 18.8775 66.3852 18.8349C66.1354 18.7923 65.8857 18.7212 65.6506 18.6217C65.4156 18.5223 65.1952 18.3944 65.0042 18.238C64.7986 18.0817 64.637 17.897 64.5047 17.698H64.4754V21.5493H62.7125V10.976H62.6978ZM68.8532 14.8415C68.8532 14.5004 68.8092 14.1593 68.7063 13.8325C68.6182 13.5056 68.4713 13.2214 68.2803 12.9656C68.0893 12.7098 67.8543 12.5108 67.5898 12.3545C67.3107 12.1981 66.9875 12.1271 66.6349 12.1271C65.9004 12.1271 65.3421 12.3687 64.9602 12.8661C64.5929 13.3635 64.4019 14.0314 64.4019 14.8557C64.4019 15.2536 64.446 15.6089 64.5488 15.9358C64.6516 16.2626 64.7839 16.5469 64.9895 16.7885C65.1805 17.0301 65.4156 17.2148 65.6947 17.3569C65.9738 17.499 66.2823 17.5701 66.6496 17.5701C67.061 17.5701 67.3842 17.4848 67.6633 17.3285C67.9424 17.1722 68.1628 16.959 68.3537 16.7174C68.53 16.4616 68.6623 16.1774 68.7357 15.8505C68.8092 15.5094 68.8532 15.1826 68.8532 14.8415ZM71.953 8.03418H73.7159V9.64008H71.953V8.03418ZM71.953 10.976H73.7159V18.6928H71.953V10.976ZM75.2878 8.03418H77.0507V18.6928H75.2878V8.03418ZM82.4276 18.906C81.7959 18.906 81.2229 18.8065 80.7235 18.5933C80.224 18.3801 79.8126 18.1101 79.46 17.7548C79.1222 17.3996 78.8577 16.959 78.6814 16.4616C78.5051 15.9642 78.4023 15.4099 78.4023 14.8273C78.4023 14.2446 78.4904 13.7046 78.6814 13.2072C78.8577 12.7098 79.1222 12.2834 79.46 11.9139C79.7979 11.5586 80.224 11.2744 80.7235 11.0754C81.2229 10.8765 81.7959 10.7628 82.4276 10.7628C83.0593 10.7628 83.6322 10.8623 84.1317 11.0754C84.6312 11.2744 85.0426 11.5586 85.3951 11.9139C85.733 12.2692 85.9975 12.7098 86.1738 13.2072C86.35 13.7046 86.4529 14.2446 86.4529 14.8273C86.4529 15.4242 86.3647 15.9642 86.1738 16.4616C85.9828 16.959 85.733 17.3853 85.3951 17.7548C85.0573 18.1101 84.6312 18.3944 84.1317 18.5933C83.6322 18.7923 83.074 18.906 82.4276 18.906ZM82.4276 17.5559C82.8096 17.5559 83.1621 17.4706 83.4413 17.3143C83.7351 17.158 83.9554 16.9448 84.1464 16.689C84.3374 16.4332 84.4696 16.1347 84.5578 15.8221C84.6459 15.4952 84.69 15.1683 84.69 14.8273C84.69 14.5004 84.6459 14.1735 84.5578 13.8467C84.4696 13.5198 84.3374 13.2356 84.1464 12.9798C83.9554 12.724 83.7204 12.525 83.4413 12.3687C83.1474 12.2124 82.8096 12.1271 82.4276 12.1271C82.0456 12.1271 81.6931 12.2124 81.4139 12.3687C81.1201 12.525 80.8997 12.7382 80.7088 12.9798C80.5178 13.2356 80.3856 13.5198 80.2974 13.8467C80.2093 14.1735 80.1652 14.5004 80.1652 14.8273C80.1652 15.1683 80.2093 15.4952 80.2974 15.8221C80.3856 16.1489 80.5178 16.4332 80.7088 16.689C80.8997 16.9448 81.1348 17.158 81.4139 17.3143C81.7077 17.4848 82.0456 17.5559 82.4276 17.5559ZM86.9818 10.976H88.3186V8.64527H90.0815V10.9617H91.6681V12.2266H90.0815V16.3479C90.0815 16.5327 90.0962 16.6748 90.1109 16.8169C90.1256 16.9448 90.1697 17.0585 90.2137 17.1437C90.2725 17.229 90.3607 17.3001 90.4635 17.3427C90.581 17.3853 90.7279 17.4138 90.9336 17.4138C91.0511 17.4138 91.1833 17.4138 91.3009 17.3996C91.4184 17.3853 91.5506 17.3711 91.6681 17.3427V18.6644C91.4772 18.6928 91.2862 18.707 91.0952 18.7212C90.9042 18.7496 90.7279 18.7496 90.5223 18.7496C90.0521 18.7496 89.6849 18.707 89.4057 18.6217C89.1266 18.5365 88.9063 18.4086 88.7447 18.2522C88.5831 18.0817 88.4802 17.8827 88.4215 17.6411C88.3627 17.3996 88.3333 17.1011 88.3186 16.7885V12.2408H86.9818V10.9475V10.976Z" fill="black"/>
<path d="M24.6303 8.03071H16.565L14.0823 0.612305L11.5848 8.03071L3.51953 8.01649L10.0423 12.6068L7.54483 20.0252L14.0676 15.4349L20.5903 20.0252L18.1076 12.6068L24.6303 8.03071Z" fill="#00B67A"/>
<path d="M18.6656 14.2854L18.1073 12.6084L14.082 15.4365L18.6656 14.2854Z" fill="#005128"/>
</g>
<defs>
<clipPath id="clip0_3540_68568">
<rect width="93.334" height="21.033" fill="white" transform="translate(0.667969 0.483398)"/>
</clipPath>
</defs>
</svg>
