<svg width="20" height="18" viewBox="0 0 20 18" fill="none" xmlns="http://www.w3.org/2000/svg">
<path d="M17.9297 4.91797C18.7109 4.33203 19.4141 3.62891 19.9609 2.80859C19.2578 3.12109 18.4375 3.35547 17.6172 3.43359C18.4766 2.92578 19.1016 2.14453 19.4141 1.16797C18.6328 1.63672 17.7344 1.98828 16.8359 2.18359C16.0547 1.36328 15 0.894531 13.8281 0.894531C11.5625 0.894531 9.72656 2.73047 9.72656 4.99609C9.72656 5.30859 9.76562 5.62109 9.84375 5.93359C6.44531 5.73828 3.39844 4.09766 1.36719 1.63672C1.01562 2.22266 0.820312 2.92578 0.820312 3.70703C0.820312 5.11328 1.52344 6.36328 2.65625 7.10547C1.99219 7.06641 1.32812 6.91016 0.78125 6.59766V6.63672C0.78125 8.62891 2.1875 10.2695 4.0625 10.6602C3.75 10.7383 3.35938 10.8164 3.00781 10.8164C2.73438 10.8164 2.5 10.7773 2.22656 10.7383C2.73438 12.3789 4.25781 13.5508 6.05469 13.5898C4.64844 14.6836 2.89062 15.3477 0.976562 15.3477C0.625 15.3477 0.3125 15.3086 0 15.2695C1.79688 16.4414 3.94531 17.1055 6.28906 17.1055C13.8281 17.1055 17.9297 10.8945 17.9297 5.46484C17.9297 5.26953 17.9297 5.11328 17.9297 4.91797Z" fill="white"/>
</svg>
