<svg width="133" height="52" viewBox="0 0 133 52" fill="none" xmlns="http://www.w3.org/2000/svg">
<path fill-rule="evenodd" clip-rule="evenodd" d="M76.3249 6.25358C75.7891 6.79013 74.2461 7.52041 74.2461 7.52041L72.2323 8.25144C71.9236 8.12127 71.5021 8.07285 70.9337 8.07285H70.2027V11.1097C70.1702 11.8892 70.2837 12.3766 70.5266 12.6036C70.771 12.8147 71.3394 12.9449 72.2165 12.9608V13.4966H66.2236V12.9608C67.1333 12.9449 67.7016 12.8147 67.9619 12.6036C68.2048 12.3925 68.3184 11.8892 68.2858 11.1097V3.44448C68.2858 2.90869 68.254 2.5023 68.1723 2.25937C68.0913 2.0157 67.8968 1.85299 67.6206 1.77202C67.3285 1.69105 66.9055 1.64187 66.3213 1.61008V1.07353H71.9887C72.8173 1.07353 73.5158 1.12271 74.1167 1.21958C74.7009 1.3172 75.2042 1.47992 75.6264 1.7236C76.0979 1.96652 76.471 2.3078 76.7306 2.73008C77.0068 3.15235 77.1528 3.6556 77.1528 4.22393C77.1369 5.03594 76.8607 5.71779 76.3249 6.25358ZM70.2027 7.45534H71.2902C71.8585 7.45534 72.3466 7.42354 72.7522 7.32591C73.142 7.24418 73.4833 7.09814 73.7746 6.90365C74.2136 6.62743 74.5382 6.28613 74.7335 5.89715C74.9279 5.50742 75.0256 5.0526 75.0256 4.5327C74.993 3.50955 74.6525 2.77852 74.0024 2.34035C73.3531 1.90143 72.5737 1.69104 71.6807 1.70693C71.3553 1.70693 71.0957 1.72359 70.8846 1.75613C70.6893 1.78792 70.544 1.83635 70.4464 1.88629C70.3654 1.93397 70.3003 2.03158 70.2511 2.16175C70.2186 2.29115 70.2027 2.47051 70.2027 2.73008V7.45534Z" fill="#C0C0C7"/>
<path fill-rule="evenodd" clip-rule="evenodd" d="M72.1839 8.26738C72.1672 8.28402 72.9149 8.43007 73.3856 9.3556C73.8397 10.2811 77.51 17.1018 82.3177 16.8097V16.3875C82.3177 16.3875 77.4298 13.9999 75.8375 9.64772C75.8375 9.64772 75.4478 7.74823 74.327 7.4879L72.1839 8.26738Z" fill="#C0C0C7"/>
<path fill-rule="evenodd" clip-rule="evenodd" d="M0 17.0691H9.38615C9.04561 18.0756 8.89956 18.8717 8.89956 19.8298C8.89956 23.0612 11.7738 34.5754 12.0333 35.8414L16.3371 17.9462L20.6885 35.4358C21.3544 31.9123 23.3848 20.1227 23.3848 19.2774C23.3848 18.4336 23.1411 17.8978 22.2481 17.0691H32.0725C29.7666 19.4242 29.1824 21.7459 28.8085 24.0525C28.2084 27.6737 25.6097 42.0613 25.6097 43.4416C25.6097 44.3838 25.8859 45.4395 26.5186 46.3166C28.0291 45.4069 28.5649 43.848 28.776 42.7272C29.3935 39.707 31.6343 29.4922 31.6343 28.6476C31.6343 27.884 31.0819 26.9918 30.0595 26.5695L39.2345 21.3078C39.0718 22.6881 38.9099 23.435 38.9099 24.4907C38.9099 26.845 41.0697 33.0323 41.4102 34.4127C42.2873 34.2992 43.1803 34.2015 44.5281 34.1198V36.1177C43.7653 36.2478 42.8715 36.4915 42.0595 36.8162C42.904 39.5118 43.343 42.3867 44.7067 45.1792C45.4702 44.1886 45.7298 43.0519 45.7298 41.997V29.1024L42.2222 27.3157C45.2425 25.221 48.604 23.1104 51.7552 21.2101L60.9953 30.7431L55.5065 35.9065L59.3713 37.8226V43.2638C59.3713 44.2703 60.3944 45.6014 61.4985 46.7056H56.1391C55.8145 46.7056 54.581 45.0823 54.4826 44.9196C54.3206 44.6267 53.7848 43.4091 53.7848 42.8892V40.5674L50.9106 38.7489V43.5718C50.9106 44.6116 51.8687 45.634 52.6966 46.7056H37.4803C38.0653 45.2927 38.5519 44.1076 38.5519 42.7605C38.5519 41.3151 38.0328 40.0158 37.6756 38.5537C36.7175 39.1546 32.4789 41.2175 32.4789 43.2797C32.4789 44.5624 33.2583 45.2443 34.7522 46.7056H17.5547C17.7499 45.7967 17.896 44.4322 17.896 44.3187C17.896 43.3448 16.6942 36.7677 16.5641 35.8747L16.499 35.793C16.2886 36.7352 14.8265 42.1915 14.8265 44.075C14.8265 45.1625 14.9726 45.2276 15.3623 46.7056H5.78169C7.12949 45.4554 7.56765 44.9363 7.56765 43.7179C7.56765 42.4185 6.9017 39.9832 6.65802 38.9275C5.13162 32.383 3.81636 25.8544 1.86769 19.3591C1.65655 18.6606 0.568331 17.816 0 17.0691ZM50.9265 27.5927L54.0285 30.6288L50.9265 33.1625V27.5927ZM35.1744 29.5088L36.831 35.3707V35.5819C35.8238 35.955 34.6228 36.605 33.6322 37.3194L35.1744 29.5088Z" fill="#C0C0C7"/>
<path fill-rule="evenodd" clip-rule="evenodd" d="M68.1401 16.0627L75.3831 23.4026L71.5993 25.66L69.1799 23.2406C68.5957 23.7764 68.01 24.3607 67.4742 24.9456V43.0195C68.01 43.5553 68.5957 44.1561 69.1315 44.6919L73.2392 41.4288L74.9124 45.6182C75.5617 44.8062 76.1785 43.2147 76.1785 42.24V28.5176L72.7201 26.6665C75.8054 24.6853 79.3614 22.7692 82.6587 20.869L91.2979 30.2074L85.7115 35.5661L89.4628 37.287V43.4258C89.4628 43.7997 89.8366 44.6594 89.9494 44.9363C90.8105 43.9283 90.8923 42.6464 91.1677 41.4931C91.7686 38.9276 93.9125 29.0375 93.9125 28.0794C93.9125 27.0729 93.5394 26.6014 92.2885 25.822L101.853 20.4308H102.016C101.788 21.438 101.626 22.6072 101.626 23.6304C101.626 24.3281 103.542 33.1134 104.078 33.1134L107.456 32.7244V34.8835C106.611 35.0954 104.743 35.4844 104.743 35.7447C104.743 36.2154 106.79 43.3449 107.878 45.2769C108.284 44.8872 108.592 43.6044 108.592 42.9869V28.8104L104.89 27.365C108.171 24.8321 111.955 22.2985 115.396 19.9275L118.612 23.2891V22.2009H133V28.5668C132.172 28.0794 131.442 27.2349 130.662 27.2349H128.112V41.5907C128.129 43.0036 129.168 45.488 130.694 46.6898H120.903C122.623 45.1959 123.078 43.1337 123.078 41.6066V27.2349H120.983C120.301 27.2349 119.408 27.7215 118.709 28.5668L115.884 25.9521L114.033 27.2674V32.1886H118.726V37.4663C118.125 36.8647 117.459 36.5726 116.826 36.5726H114.033V43.2639C114.033 44.3514 114.764 45.6833 115.868 46.6898H100.197C100.749 45.5531 101.383 43.8648 101.383 42.6138C101.383 41.2986 100.473 38.6348 100.229 37.6608C98.1179 39.0079 94.8055 40.7303 94.8055 43.1337C94.8055 44.4649 95.6501 45.1793 97.2256 46.7057H86.133C86.0202 46.7057 85.8742 46.4945 85.7766 46.4295C84.8026 45.6507 84.039 43.637 84.039 42.5979V39.8857L81.2133 38.0014V43.3767C81.2133 44.4815 82.0903 45.488 82.9349 46.7057H74.2782L68.3679 52L61.5146 44.5625V23.3542L68.1401 16.0627ZM81.2291 27.2349L83.9898 30.1257L81.2291 32.7244V27.2349ZM97.7448 28.8755L99.3522 34.3643C98.5084 34.9327 97.1931 35.5169 96.2017 36.232L97.7448 28.8755Z" fill="#C0C0C7"/>
<path fill-rule="evenodd" clip-rule="evenodd" d="M54.8237 1.15541C53.541 1.15541 52.4853 1.41496 51.6248 1.9341C50.7803 2.454 50.1468 3.15251 49.7412 4.0296C49.3348 4.89004 49.1237 5.84809 49.1237 6.87124C49.1237 7.66736 49.2539 8.46272 49.4975 9.27473C49.7571 10.0867 50.1302 10.8337 50.6342 11.483C51.1541 12.1489 51.8034 12.6847 52.5988 13.0745C53.3949 13.4642 54.3038 13.6753 55.3436 13.6753C56.6263 13.6753 57.6979 13.3991 58.5424 12.88C59.387 12.3601 60.0204 11.6623 60.4101 10.7852C60.7998 9.89151 60.9951 8.93343 60.9951 7.86185C60.9951 7.00141 60.8808 6.17275 60.6379 5.37739C60.3942 4.58127 60.037 3.8669 59.533 3.23348C59.0464 2.61672 58.3964 2.09682 57.6169 1.72374C56.8374 1.33325 55.8953 1.15541 54.8237 1.15541ZM55.165 0.71648C56.3183 0.71648 57.3898 0.862535 58.3638 1.18719C59.3385 1.51184 60.1823 1.95076 60.8808 2.55164C61.5793 3.13662 62.1151 3.83435 62.4889 4.663C62.8779 5.47501 63.0573 6.3839 63.0573 7.34197C63.0573 8.5929 62.716 9.72954 62.0341 10.7686C61.3515 11.8076 60.4101 12.6204 59.1925 13.2205C57.9907 13.8055 56.6263 14.1143 55.1165 14.1143C53.9958 14.1143 52.9401 13.9516 51.9661 13.6428C50.9914 13.3181 50.1302 12.8633 49.3999 12.2791C48.653 11.6782 48.0847 10.9797 47.6783 10.1677C47.256 9.3716 47.0615 8.49526 47.0615 7.55309C47.0615 6.57913 47.256 5.6854 47.6624 4.8575C48.0521 4.0296 48.6371 3.29856 49.3674 2.6818C50.1143 2.04839 50.9914 1.56102 51.982 1.21972C52.9726 0.879178 54.0283 0.71648 55.165 0.71648Z" fill="#C0C0C7"/>
<path fill-rule="evenodd" clip-rule="evenodd" d="M93.4419 10.6709C93.2951 11.1098 93.1491 11.4996 92.9864 11.8242C92.8085 12.1489 92.6458 12.4084 92.4672 12.6037C92.2561 12.8473 91.9799 13.0093 91.6393 13.1069C91.298 13.1879 90.8599 13.2204 90.34 13.2204C89.9495 13.2204 87.2054 13.2045 86.8967 13.172C86.5887 13.1394 86.3284 13.0585 86.1505 12.9609C85.9719 12.8632 85.8577 12.7013 85.7926 12.4576C85.7275 12.1973 85.6949 11.8242 85.7116 11.2884V3.49297C85.6949 2.94128 85.7275 2.53489 85.8092 2.27532C85.8743 2.01575 86.037 1.85306 86.2799 1.77208C86.5236 1.67446 87.1245 1.47997 87.6277 1.44743V1.12277H81.5547V1.44743C82.0579 1.47997 83.0803 1.67446 83.3248 1.77208C83.5684 1.85306 83.7137 2.01575 83.7788 2.27532C83.8439 2.53489 83.8764 2.94128 83.8764 3.49297V11.4019C83.8931 12.1973 83.8114 12.7172 83.6002 12.945C83.3898 13.172 82.6747 13.3022 81.8952 13.3339V13.6919H93.3277C93.3928 13.4808 93.4578 13.3506 93.5555 12.945C93.6523 12.5386 93.7333 12.133 93.815 11.7266C93.9127 11.321 93.9777 10.9955 94.0103 10.7852L93.4419 10.6709Z" fill="#C0C0C7"/>
<path fill-rule="evenodd" clip-rule="evenodd" d="M39.5588 1.31683H34.8979V1.85262C35.8726 1.9336 35.9211 2.76225 35.6615 3.29804C35.3853 3.96399 35.0281 4.75935 34.5733 5.71741C34.1185 6.65958 33.6319 7.63431 33.1278 8.64081C32.6246 9.6473 32.1698 10.5569 31.7475 11.3856H31.6991C31.1141 10.2648 30.5624 9.16071 30.01 8.03994C29.4583 6.93582 28.9709 5.92855 28.532 5.03557C28.1097 4.14258 27.7851 3.46075 27.5581 2.99005C27.3469 2.58366 27.3144 2.30743 27.4771 2.16137C27.639 1.99867 28.143 1.90106 29.0035 1.85262V1.31683H22.9297V1.85262C23.6441 1.88592 24.164 1.99868 24.5212 2.20982C24.8625 2.42095 25.203 2.85987 25.5284 3.54171C26.015 4.48313 26.5516 5.53958 27.1358 6.72467C27.72 7.89387 28.305 9.11151 28.9218 10.3624C29.5226 11.6126 30.1076 12.8303 30.6759 14.0161H31.4395C32.0888 12.6683 32.7707 11.3039 33.4692 9.90763C34.1835 8.52729 34.817 7.27636 35.3853 6.20478C35.9695 5.11655 36.3759 4.33784 36.6029 3.89892C37.0419 3.07102 37.4475 2.53447 37.8047 2.2908C38.1785 2.04787 38.7627 1.90106 39.5588 1.85262V1.31683Z" fill="#C0C0C7"/>
<path fill-rule="evenodd" clip-rule="evenodd" d="M45.4217 1.31683H39.7702V1.85262C40.7442 1.9336 41.4101 2.06376 41.6213 2.24235C41.8165 2.42095 41.7999 2.76225 41.5236 3.29804C41.2641 3.96399 40.891 4.75935 40.4362 5.71741C39.9813 6.65958 39.5106 7.63431 39.0066 8.64081C38.4875 9.6473 38.0327 10.5569 37.6104 11.3856H37.5612C36.977 10.2648 36.4245 9.16071 35.8729 8.03994C35.3204 6.93582 34.8331 5.92855 34.3949 5.03557C33.9726 4.14258 33.648 3.46075 33.4368 2.99005C33.2091 2.58366 33.3067 1.90106 34.1512 1.85262V1.31683H29.2148V1.85262C29.9292 1.88592 30.0261 1.99868 30.384 2.20982C30.7246 2.42095 31.0659 2.85987 31.3905 3.54171C31.8779 4.48313 32.4137 5.53958 32.9987 6.72467C33.5829 7.89387 34.1679 9.11151 34.7846 10.3624C35.3855 11.6126 35.9697 12.8303 36.5388 14.0161H37.3016C37.9517 12.6683 38.6335 11.3039 39.3313 9.90763C40.0464 8.52729 40.6798 7.27636 41.2641 6.20478C41.8324 5.11655 42.2388 4.33784 42.4825 3.89892C42.904 3.07102 43.3104 2.53447 43.6675 2.2908C44.0406 2.04787 44.6256 1.90106 45.4217 1.85262V1.31683Z" fill="#C0C0C7"/>
<path fill-rule="evenodd" clip-rule="evenodd" d="M100.278 3.1521C100.278 2.77826 100.311 2.50204 100.359 2.35598C100.408 2.19404 100.506 2.09641 100.603 2.04798C100.733 1.96624 100.96 1.90118 101.285 1.85274C101.61 1.82096 102.049 1.78765 102.568 1.78765C103.429 1.78765 104.208 1.85274 104.923 1.9829C105.637 2.11307 106.286 2.32344 106.855 2.59966C107.861 3.07113 108.609 3.70378 109.096 4.53244C109.584 5.34445 109.827 6.26998 109.827 7.27647C109.827 8.33216 109.584 9.30611 109.08 10.1999C108.592 11.0769 107.829 11.7913 106.822 12.3271C105.8 12.8629 104.516 13.1225 102.957 13.1391C102.032 13.155 101.366 13.0423 100.928 12.7661C100.489 12.5057 100.278 12.0184 100.278 11.2881V3.1521ZM96.0073 1.15501V1.69078C96.64 1.72333 97.1114 1.77177 97.4202 1.85274C97.7289 1.93372 97.9242 2.11306 98.021 2.35598C98.1179 2.61631 98.1504 3.0227 98.1504 3.57438V11.4182C98.183 12.2295 98.0528 12.7335 97.7774 12.9446C97.4845 13.1717 96.8193 13.3018 95.7803 13.3177V13.8535H101.723C103.25 13.8535 104.647 13.7241 105.897 13.4638C107.148 13.2042 108.252 12.7819 109.193 12.2295C110.168 11.6619 110.916 10.9468 111.467 10.0697C112.003 9.20925 112.279 8.18611 112.295 7.00102C112.279 6.09139 112.084 5.27936 111.694 4.56498C111.305 3.86648 110.801 3.28151 110.152 2.81156C109.373 2.22658 108.398 1.80431 107.212 1.54473C106.044 1.26851 104.647 1.13836 103.055 1.15501H96.0073Z" fill="#C0C0C7"/>
<path fill-rule="evenodd" clip-rule="evenodd" d="M53.3947 6.40008C53.8004 6.40008 54.1258 6.54614 54.3687 6.83825C54.629 7.11447 54.7425 7.5201 54.7584 8.04C54.7425 8.51071 54.629 8.86865 54.4012 9.11158C54.1742 9.33936 53.898 9.46877 53.5567 9.46877C53.2646 9.46877 53.005 9.38779 52.7939 9.24174C52.5827 9.09568 52.4367 8.90044 52.3232 8.65676C52.2089 8.41384 52.1604 8.13686 52.1438 7.84551C52.1604 7.39069 52.274 7.0335 52.5017 6.78982C52.7447 6.5295 53.0375 6.40008 53.3781 6.40008H53.3947ZM53.5249 6.18894C52.9891 6.18894 52.5502 6.26993 52.1763 6.44852C51.8191 6.61123 51.5429 6.82235 51.3651 7.09781C51.1857 7.35814 51.0889 7.63437 51.0889 7.94238C51.0889 8.26703 51.1857 8.57579 51.381 8.83612C51.5755 9.09569 51.8517 9.29093 52.2089 9.45288C52.5668 9.59893 52.9724 9.68066 53.4273 9.68066C53.8813 9.68066 54.2711 9.61558 54.629 9.46877C55.0021 9.32271 55.2783 9.11158 55.4894 8.85201C55.7006 8.59244 55.8141 8.26702 55.8141 7.89393C55.8141 7.55263 55.7172 7.26054 55.5061 7.00096C55.2942 6.74064 55.0187 6.54613 54.6774 6.40008C54.3361 6.25327 53.9464 6.18894 53.5249 6.18894Z" fill="#C0C0C7"/>
<path fill-rule="evenodd" clip-rule="evenodd" d="M59.2735 7.04958C59.2568 6.88688 59.2409 6.72494 59.2243 6.56299C59.2084 6.41618 59.2084 6.30265 59.1925 6.25346H56.123V6.43283C56.3016 6.44872 56.4152 6.46536 56.4961 6.48125C56.5779 6.51379 56.643 6.56298 56.6588 6.6273C56.6914 6.70903 56.6914 6.82255 56.6914 6.9686V8.86885C56.6914 9.0308 56.6914 9.14431 56.6588 9.22604C56.643 9.30626 56.5779 9.35544 56.4961 9.37133C56.4152 9.40387 56.3016 9.42053 56.123 9.42053V9.59912H58.2829V9.42053C58.0876 9.42053 57.9423 9.40387 57.8447 9.37133C57.7471 9.35544 57.682 9.30626 57.6653 9.22604C57.6335 9.14431 57.6169 9.0308 57.6335 8.86885V8.05608H57.8772C58.0717 8.05608 58.2344 8.07273 58.3313 8.08938C58.4289 8.10527 58.5106 8.13706 58.5424 8.18625C58.5909 8.25133 58.6234 8.3323 58.64 8.44581H58.8837V7.42342H58.64C58.6234 7.53694 58.5909 7.61791 58.5424 7.6671C58.5106 7.73142 58.4289 7.76472 58.3313 7.78061C58.2344 7.7965 58.0717 7.79652 57.8772 7.79652H57.6335V6.65986C57.6169 6.57888 57.6335 6.52968 57.6653 6.51379C57.6979 6.48125 57.7796 6.48125 57.8931 6.48125H58.1201C58.3154 6.48125 58.2178 6.4979 58.3313 6.51379C58.4289 6.52968 58.5265 6.57887 58.5908 6.6273C58.6559 6.67649 58.7051 6.74082 58.7536 6.82255C58.8028 6.88688 58.8353 6.9686 58.8678 7.08212L59.2735 7.04958Z" fill="#C0C0C7"/>
</svg>
