<svg width="124" height="44" viewBox="0 0 124 44" fill="none" xmlns="http://www.w3.org/2000/svg">
<path fill-rule="evenodd" clip-rule="evenodd" d="M39.645 0H39.7389C40.7409 0.0228978 41.5695 0.29258 42.1018 0.796331C42.7931 1.45019 42.7979 2.77063 42.7642 4.2717H40.1917V2.93346C40.1917 2.47296 40.2255 1.83691 40.0424 1.67662C39.9544 1.61998 39.8541 1.58834 39.7511 1.58477C39.6481 1.5812 39.546 1.60584 39.4547 1.65627C39.2138 1.8191 39.2668 2.67395 39.2668 3.18279V6.58692C39.2668 7.07541 39.1994 7.90736 39.4547 8.08546C39.5415 8.12714 39.6363 8.147 39.7315 8.14347C39.8268 8.13994 39.92 8.11311 40.0039 8.0651C40.2014 7.90991 40.1917 7.41124 40.1917 7.02707C40.1917 6.57675 40.1917 6.2231 40.1917 5.79059H42.7642C42.7256 6.793 42.834 7.59951 42.5233 8.33479C42.2495 8.83778 41.8261 9.23128 41.319 9.45424C39.9123 10.0954 37.5591 9.70865 36.9834 8.45436C36.7257 7.88446 36.7426 7.23061 36.6824 6.43936V3.25403C36.6824 2.18292 36.7931 1.47309 37.2484 0.936262C37.7542 0.325655 38.5996 0.0483397 39.645 0Z" fill="#C0C0C7"/>
<path fill-rule="evenodd" clip-rule="evenodd" d="M44.1804 0.150107H47.8874C48.357 3.2871 48.8749 6.37575 49.3325 9.51529H46.9239L46.736 7.79796H45.4522C45.3872 8.37041 45.3246 8.9454 45.2619 9.51784H42.8388C43.2788 6.4224 43.714 3.32102 44.1443 0.213712C44.1426 0.20067 44.1452 0.187398 44.1519 0.17623C44.1585 0.165061 44.1686 0.156711 44.1804 0.152649V0.150107ZM46.0351 6.20275H46.5457C46.4349 4.93065 46.2447 3.56696 46.1098 2.24907C45.9492 3.56357 45.795 4.88231 45.6473 6.2053L46.0351 6.20275Z" fill="#C0C0C7"/>
<path fill-rule="evenodd" clip-rule="evenodd" d="M49.795 0.178093H52.3482C52.3915 2.51367 52.3482 5.2385 52.3674 7.6275C52.8492 7.6733 53.4056 7.6275 53.9162 7.64531V9.52293H49.7757V0.239155C49.7757 0.211169 49.7757 0.180637 49.795 0.178093Z" fill="#C0C0C7"/>
<path fill-rule="evenodd" clip-rule="evenodd" d="M54.54 0.178093H57.0932V7.6275C57.5749 7.6733 58.1458 7.6275 58.6612 7.64531V9.52293H54.5232V0.239155C54.5208 0.211169 54.5183 0.180637 54.54 0.178093Z" fill="#C0C0C7"/>
<path fill-rule="evenodd" clip-rule="evenodd" d="M64.4082 1.85472V7.92517C64.6274 7.92517 64.9791 7.8921 65.0899 7.72672C65.2489 7.48757 65.2031 6.82608 65.2031 6.36812V3.3736C65.2031 2.91819 65.2633 2.19055 65.1092 1.9743C64.9887 1.81147 64.678 1.79111 64.4275 1.7962C64.4058 1.7962 64.4082 1.82673 64.4082 1.85472ZM61.8575 0.178094C62.6475 0.20608 63.5291 0.139931 64.3721 0.178094C65.8173 0.244243 67.0481 0.241697 67.566 1.27718C67.7803 1.70461 67.7924 2.48059 67.7924 3.23367V7.01944C67.7924 8.05493 67.7105 8.82073 67.0939 9.19727C66.4773 9.57381 65.5114 9.53565 64.6178 9.53565C63.6543 9.53565 62.674 9.55091 61.8189 9.51529V0.239156C61.8173 0.225782 61.8203 0.21224 61.8274 0.201022C61.8345 0.189804 61.8452 0.181662 61.8575 0.178094Z" fill="#C0C0C7"/>
<path fill-rule="evenodd" clip-rule="evenodd" d="M68.4548 0.178091H70.9887C71.0513 2.43479 70.9044 4.9739 70.9887 7.34764C71.0007 7.73181 71.0103 8.0651 71.2512 8.12616C71.875 8.28136 71.7064 7.10848 71.7064 6.52841V0.198445C72.5254 0.15265 73.4262 0.198445 74.2765 0.178091V6.16967C74.2765 6.88459 74.3246 7.69619 74.1247 8.22539C73.7995 9.08787 72.9565 9.59925 71.8943 9.70356C70.4154 9.84858 68.7486 9.30921 68.4933 7.88701C68.3897 7.31456 68.4548 6.6607 68.4355 6.00939C68.3801 4.15467 68.421 2.06334 68.4355 0.239153C68.4138 0.208623 68.4162 0.190812 68.4548 0.178091Z" fill="#C0C0C7"/>
<path fill-rule="evenodd" clip-rule="evenodd" d="M74.8449 0.178093H80.4594V2.05571H78.9468C78.901 4.51086 78.9468 7.05506 78.9275 9.54328C78.0701 9.53056 77.162 9.56872 76.3382 9.52293V2.05571H74.8256V0.239155C74.8256 0.211169 74.8256 0.180637 74.8449 0.178093Z" fill="#C0C0C7"/>
<path fill-rule="evenodd" clip-rule="evenodd" d="M80.9315 0.178093H83.2751L83.9977 2.58999L84.6071 0.178093H86.9507L85.072 6.12388V9.60434H82.6922V6.20784C82.0965 4.21997 81.504 2.23041 80.9147 0.239155C80.9171 0.221346 80.9026 0.183181 80.9315 0.178093Z" fill="#C0C0C7"/>
<path fill-rule="evenodd" clip-rule="evenodd" d="M58.6612 2.94872C58.6275 3.41686 58.6444 4.14195 58.6444 4.6457C58.6444 4.81616 58.5769 5.06041 58.7383 5.12656C58.8973 5.11129 58.8515 4.87214 58.8515 4.66606V3.40922C58.8515 3.18025 58.8973 2.86222 58.719 2.90038C58.7061 2.90547 58.6943 2.91328 58.6844 2.92334C58.6745 2.9334 58.6666 2.9455 58.6612 2.9589V2.94872ZM58.5865 2.35084C58.7651 2.30991 58.9513 2.3303 59.1181 2.40901C59.285 2.48773 59.4236 2.62066 59.5139 2.78844C59.6223 3.04286 59.5885 3.76032 59.5885 4.16739C59.5885 4.70676 59.603 5.17235 59.3983 5.42423C59.0394 5.872 58.1939 5.72699 57.982 5.24613C57.8567 4.95609 57.9049 4.35821 57.9049 3.97403C57.9049 3.37615 57.8639 3.00978 58.0012 2.73755C58.0627 2.62904 58.1479 2.53773 58.2498 2.47131C58.3517 2.4049 58.4672 2.36532 58.5865 2.35593V2.35084Z" fill="#C0C0C7"/>
<path fill-rule="evenodd" clip-rule="evenodd" d="M60.988 2.39409V3.05304H60.5327C60.511 3.25231 60.5053 3.45318 60.5159 3.65347H60.9302V4.2717H60.5327C60.4894 4.68386 60.5327 5.18507 60.5159 5.6303H59.815V2.39409H60.988Z" fill="#C0C0C7"/>
<path fill-rule="evenodd" clip-rule="evenodd" d="M85.9969 8.54596C86.0813 8.54798 86.1639 8.57155 86.2378 8.61465C86.3168 8.66089 86.3819 8.72965 86.4256 8.81309C86.4697 8.89444 86.493 8.98651 86.4931 9.08024C86.4914 9.16938 86.469 9.25672 86.4281 9.33466C86.3843 9.4181 86.3192 9.48687 86.2402 9.5331C86.1641 9.5798 86.0777 9.6044 85.9897 9.6044C85.9017 9.6044 85.8153 9.5798 85.7392 9.5331C85.6587 9.48894 85.5931 9.41964 85.5513 9.33466C85.5086 9.25733 85.4854 9.16974 85.4839 9.08024C85.4851 8.98668 85.5083 8.8949 85.5513 8.81309C85.5957 8.7293 85.6617 8.66051 85.7416 8.61465C85.8153 8.57126 85.8981 8.54767 85.9825 8.54596H85.9969ZM85.9969 8.635C85.9243 8.63577 85.853 8.6559 85.7898 8.69352C85.7231 8.73056 85.6679 8.78708 85.6308 8.85635C85.5951 8.92498 85.576 9.00192 85.5754 9.08024C85.5761 9.15774 85.5952 9.23382 85.6308 9.30158C85.6675 9.37093 85.7217 9.42817 85.7874 9.46695C85.8512 9.50532 85.9234 9.52549 85.9969 9.52549C86.0704 9.52549 86.1426 9.50532 86.2065 9.46695C86.2721 9.42817 86.3263 9.37093 86.363 9.30158C86.3986 9.23382 86.4177 9.15774 86.4184 9.08024C86.418 9.00156 86.3981 8.92436 86.3606 8.85635C86.3252 8.78662 86.2706 8.72985 86.204 8.69352C86.1406 8.6562 86.0695 8.6361 85.9969 8.635ZM85.7753 9.37537H85.862V9.12095H85.9054C85.9301 9.12 85.9545 9.1271 85.9752 9.1413C86.0133 9.179 86.0443 9.22386 86.0668 9.27359L86.1149 9.36519H86.2209L86.1559 9.25324C86.1333 9.2122 86.1067 9.17382 86.0764 9.13875C86.0625 9.12511 86.0461 9.11471 86.0282 9.10822C86.0708 9.10744 86.1114 9.0892 86.1414 9.05734C86.1661 9.0323 86.1814 8.9987 86.1845 8.96271C86.1876 8.92672 86.1783 8.89076 86.1583 8.86143C86.142 8.83621 86.1183 8.81741 86.0908 8.80801C86.0457 8.79329 85.9983 8.78726 85.9511 8.7902H85.7657V9.36519L85.7753 9.37537ZM85.862 9.05225H85.9704C86.0063 9.05587 86.0425 9.04788 86.074 9.02935C86.0823 9.02126 86.089 9.01143 86.0935 9.00048C86.0981 8.98954 86.1005 8.97771 86.1005 8.96575C86.1005 8.94961 86.0963 8.93378 86.0884 8.91995C86.0796 8.90511 86.0659 8.89424 86.0499 8.88942C86.0212 8.88388 85.9918 8.88388 85.9632 8.88942H85.862V9.05225Z" fill="#C0C0C7"/>
<path fill-rule="evenodd" clip-rule="evenodd" d="M1.51375 29.0903L1.53061 29.4313L3.26724 42.9282L7.80271 42.9486H11.2398L12.4707 24.8644C12.5092 24.1928 12.3719 24.1012 12.8946 24.0477L14.1928 42.9511H22.1751C22.6375 40.5799 22.8086 37.7432 23.1506 35.3185C23.5215 32.7158 25.4268 18.1554 25.4484 16.2142C25.4629 14.7589 25.4484 13.2909 25.4484 11.8331L19.6508 11.7873C19.4991 14.8683 19.2317 18.0027 19.0222 21.0838L18.4658 29.2252C18.4272 29.8612 18.5838 30.1055 18.1045 30.2429L16.7364 11.7745H8.67946L8.28685 17.7814C8.27481 18.0587 8.31575 18.5828 8.14715 18.7151C8.28926 19.5929 7.64615 27.3654 7.51127 29.5915C7.47514 30.1869 7.57389 30.0342 7.2704 30.2301C6.98859 30.0571 7.09457 30.5762 7.00545 29.2532C6.98136 28.8792 6.94765 28.4899 6.92115 28.1236C6.76459 25.9076 5.95769 12.5327 5.77223 11.8407L0.0131598 11.7822C0.0131598 16.5271 -0.119313 15.9877 0.456353 20.7225C0.791154 23.5135 1.19099 26.2994 1.51375 29.0903Z" fill="#C0C0C7"/>
<path fill-rule="evenodd" clip-rule="evenodd" d="M105.355 42.9842H108.12L108.843 42.9969C109.014 42.885 108.927 42.974 108.971 42.7425V11.8941L103.291 11.8738L103.248 25.442C102.677 25.4063 102.877 25.5208 102.45 24.0986L100.87 18.8321C100.499 17.6389 100.167 16.5424 99.8105 15.3262C99.5311 14.3798 99.0879 12.6116 98.7362 11.8738H93.1313L93.0831 42.9944H98.7916V29.4491C99.4034 29.4185 99.4034 30.1309 99.5672 30.6932C100.333 33.2984 102.841 41.1956 103.245 42.9893L105.355 42.9842Z" fill="#C0C0C7"/>
<path fill-rule="evenodd" clip-rule="evenodd" d="M47.8946 17.415H48.858C50.0286 17.415 50.2021 17.2726 50.7247 17.7559L50.7392 22.6662C50.7392 23.4778 50.9343 24.956 50.3538 25.1977H47.9187L47.897 18.4073V17.415H47.8946ZM41.3647 42.857H47.832L47.8175 31.1893C47.8705 30.7568 47.8175 30.9934 47.9548 30.8382L48.5955 30.856L51.2932 39.5521L51.4401 40.0609L52.3072 42.8595H57.9772V38.4352L54.5545 28.6451C57.0281 27.0219 57.269 26.1772 57.2714 22.4195C57.2714 19.9847 57.6207 15.8961 56.6404 13.9626C55.412 11.5456 53.1575 11.7847 50.0118 11.7873H41.3599L41.3647 42.857Z" fill="#C0C0C7"/>
<path fill-rule="evenodd" clip-rule="evenodd" d="M82.8295 17.4354C83.858 17.4354 85.19 17.181 85.349 18.0409V34.5909C85.349 35.8197 85.5898 37.3564 84.6914 37.3539C82.9163 37.3539 82.4706 37.5752 82.4706 36.2955C82.4706 30.5507 82.3839 23.5618 82.5068 17.7941L82.8295 17.4354ZM79.0793 11.9348C75.3338 13.0543 75.9649 17.298 75.9481 20.5978C75.9481 24.6126 75.9481 28.6281 75.9481 32.6446C75.9481 36.3311 75.2423 40.6817 77.9617 42.4168C79.3105 43.2793 80.9869 42.9867 83.0704 42.9867C84.1736 42.9867 87.9913 43.1419 88.7909 42.9409C89.4051 42.7857 90.1615 42.1955 90.5131 41.8495C92.2714 40.1169 91.8475 36.9341 91.8451 34.2169C91.8427 31.4997 91.9872 18.2521 91.8114 16.1989C91.65 14.3213 90.9683 13.1459 89.7712 12.4106C88.8511 11.8509 88.7283 11.861 87.5625 11.8636C86.0836 11.8763 79.626 11.772 79.0793 11.9348Z" fill="#C0C0C7"/>
<path fill-rule="evenodd" clip-rule="evenodd" d="M31.2147 30.0037C31.2147 28.5154 31.4773 26.6225 31.6049 25.0959C31.6724 24.2844 31.7374 23.4753 31.8121 22.6637C31.8506 22.2465 31.8771 21.875 31.906 21.4501C31.947 20.8141 31.8048 20.6869 32.2697 20.5724L33.1898 30.3268C32.9923 30.6016 31.4749 30.4668 31.1376 30.4031L31.2147 30.0037ZM26.0506 23.4575C26.0337 23.6814 26.0915 24.0147 25.8916 24.0147C26.0024 24.8288 25.1931 29.5152 25.0245 30.7059C24.8005 32.3138 24.0611 36.0716 24.1309 37.4429C24.0442 39.1857 24.0948 41.0964 24.0972 42.8773H29.743C30.2248 42.8214 29.9357 42.8977 30.1959 42.6992L30.6342 36.929L33.7342 36.8807L34.2159 42.9409H40.2857C40.8493 39.0992 39.3535 30.7873 38.802 26.9685L37.1665 15.5603C37.0701 14.8988 36.981 14.2882 36.8919 13.6471C36.8461 13.3163 36.798 13.0212 36.7546 12.6803C36.6366 11.7237 36.7185 11.8661 36.4126 11.7847C35.0421 11.7847 28.4978 11.6143 27.7101 11.8687L26.0506 23.4575Z" fill="#C0C0C7"/>
<path fill-rule="evenodd" clip-rule="evenodd" d="M67.0842 19.1171L66.8554 19.603L62.0381 30.3879C61.2698 32.151 60.4581 34.0617 59.6295 35.751C58.9069 37.2267 58.8948 37.0969 58.8948 38.972C58.8948 40.3077 58.8948 41.6409 58.8948 42.974L74.7919 42.9893V36.5016H66.3014L71.3596 25.1341C72.2026 23.2005 73.0456 21.3356 73.9151 19.4326C74.5992 17.9315 74.7991 18.0663 74.7967 16.0971C74.7967 14.9115 74.9075 12.9652 74.7582 11.8738H58.9286L58.8997 18.3513H67.4022L67.0842 19.1171Z" fill="#C0C0C7"/>
<path fill-rule="evenodd" clip-rule="evenodd" d="M110.38 42.9867H123.634V36.499H116.873L116.825 30.9018L116.873 30.5024H122.023C122.336 30.3472 122.141 30.6067 122.247 30.2301L122.921 24.035H116.828V18.3767H123.596L123.637 18.1223V11.9984H110.389L110.38 42.9867Z" fill="#C0C0C7"/>
<path fill-rule="evenodd" clip-rule="evenodd" d="M110.269 35.8426V42.6382C110.31 43.058 110.269 42.8315 110.382 42.9944V11.9832H123.63C123.42 11.6779 121.703 11.8483 121.332 11.8483C120.532 11.8483 119.723 11.8483 118.923 11.8483H110.305L110.269 35.8426Z" fill="#C0C0C7"/>
</svg>
