<svg width="23" height="16" viewBox="0 0 23 16" fill="none" xmlns="http://www.w3.org/2000/svg">
<path d="M21.8594 2.88281C21.625 1.94531 20.8828 1.20312 19.9844 0.96875C18.3047 0.5 11.6641 0.5 11.6641 0.5C11.6641 0.5 4.98438 0.5 3.30469 0.96875C2.40625 1.20312 1.66406 1.94531 1.42969 2.88281C0.960938 4.52344 0.960938 8.03906 0.960938 8.03906C0.960938 8.03906 0.960938 11.5156 1.42969 13.1953C1.66406 14.1328 2.40625 14.8359 3.30469 15.0703C4.98438 15.5 11.6641 15.5 11.6641 15.5C11.6641 15.5 18.3047 15.5 19.9844 15.0703C20.8828 14.8359 21.625 14.1328 21.8594 13.1953C22.3281 11.5156 22.3281 8.03906 22.3281 8.03906C22.3281 8.03906 22.3281 4.52344 21.8594 2.88281ZM9.47656 11.2031V4.875L15.0234 8.03906L9.47656 11.2031Z" fill="white"/>
</svg>
